{"title":"Instant Mom S02E16 Ghost Busted hdtv x264-w4f mp4","uid":12052073,"size":177822713,"categoryP":"video","categoryS":"tv_shows","magnet":"?xt=urn:btih:fb49e4380d1ad389b73e21f74c328e422e1af43e&amp;dn=Instant+Mom+S02E16+Ghost+Busted+hdtv+x264-w4f+mp4&amp;tr=udp%3A%2F%2Ftracker.openbittorrent.com%3A80&amp;tr=udp%3A%2F%2Fopen.demonii.com%3A1337&amp;tr=udp%3A%2F%2Ftracker.coppersurfer.tk%3A6969&amp;tr=udp%3A%2F%2Fexodus.desync.com%3A6969","seeders":0,"leechers":0,"uploader":"Mulva1989","files":1,"time":1435022435,"description":"Instant Mom S02E16\n\nStephanie sees a horror movie with Gabby, despite Charlie's objections, and Stephanie winds up being frightened. Her fears then escalate when James tries to persuade her their house is haunted.\n\nScreens @ \n &lt;a href=&quot;\nhttps://yuq.me/users/50/321/SVnRYwJcTp.jpg&quot; rel=&quot;nofollow&quot; target=&quot;_NEW&quot;&gt;\nhttps://yuq.me/users/50/321/SVnRYwJcTp.jpg&lt;/a&gt; &lt;a href=&quot;\nhttps://yuq.me/users/50/321/gsO9moD4Au.jpg&quot; rel=&quot;nofollow&quot; target=&quot;_NEW&quot;&gt;\nhttps://yuq.me/users/50/321/gsO9moD4Au.jpg&lt;/a&gt;\n\nVideo\nID : 1\nFormat : AVC\nFormat/Info : Advanced Video Codec\nFormat profile : &lt;a class=&quot;__cf_email__&quot; href=&quot;/cdn-cgi/l/email-protection&quot; data-cfemail=&quot;ace4c5cbc4ece09f829d&quot;&gt;[email&amp;#160;protected]&lt;/a&gt;&lt;script data-cfhash='f9e31' type=&quot;text/javascript&quot;&gt;\n/* &lt;![CDATA[ */!function(){try{var t=&quot;currentScript&quot;in document?document.currentScript:function(){for(var t=document.getElementsByTagName(&quot;script&quot;),e=t.length;e--;)if(t[e].getAttribute(&quot;data-cfhash&quot;))return t[e]}();if(t&amp;&amp;t.previousSibling){var e,r,n,i,c=t.previousSibling,a=c.getAttribute(&quot;data-cfemail&quot;);if(a){for(e=&quot;&quot;,r=parseInt(a.substr(0,2),16),n=2;a.length-n;n+=2)i=parseInt(a.substr(n,2),16)^r,e+=String.fromCharCode(i);e=document.createTextNode(e),c.parentNode.replaceChild(e,c)}t.parentNode.removeChild(t);}}catch(u){}}()/* ]]&gt; */&lt;/script&gt;\nFormat settings, CABAC : Yes\nFormat settings, ReFrames : 5 frames\nCodec ID : avc1\nCodec ID/Info : Advanced Video Coding\nDuration : 20mn 30s\nBit rate : 1 043 Kbps\nMaximum bit rate : 2 194 Kbps\nWidth : 720 pixels\nHeight : 404 pixels\nDisplay aspect ratio : 16:9\nFrame rate mode : Constant\nFrame rate : 23.976 fps\nColor space : YUV\nChroma subsampling : 4:2:0\nBit depth : 8 bits\nScan type : Progressive\nBits/(Pixel*Frame) : 0.150\nStream size : 153 MiB (90%)\nWriting library : x264 core 146 r2538 121396c\nEncoding settings : cabac=1 / ref=5 / deblock=1:0:0 / analyse=0x3:0x113 / me=umh / subme=8 / psy=1 / psy_rd=1.00:0.00 / mixed_ref=1 / me_range=16 / chroma_me=1 / trellis=1 / 8x8dct=1 / cqm=0 / deadzone=21,11 / fast_pskip=1 / chroma_qp_offset=-2 / threads=12 / lookahead_threads=2 / sliced_threads=0 / nr=0 / decimate=1 / interlaced=0 / bluray_compat=0 / constrained_intra=0 / bframes=3 / b_pyramid=2 / b_adapt=2 / b_bias=0 / direct=3 / weightb=1 / open_gop=0 / weightp=2 / keyint=250 / keyint_min=25 / scenecut=40 / intra_refresh=0 / rc_lookahead=50 / rc=crf / mbtree=1 / crf=19.0 / qcomp=0.60 / qpmin=0 / qpmax=69 / qpstep=4 / ip_ratio=1.40 / aq=1:1.00\nEncoded date : UTC 2015-06-04 04:35:04\nTagged date : UTC 2015-06-04 04:35:08\nMatrix coefficients : BT.709\nColor range : Limited\n\nAudio\nID : 2\nFormat : AAC\nFormat/Info : Advanced Audio Codec\nFormat profile : LC\nCodec ID : 40\nDuration : 20mn 30s\nBit rate mode : Variable\nBit rate : 109 Kbps\nMaximum bit rate : 149 Kbps\nChannel(s) : 2 channels\nChannel positions : Front: L R\nSampling rate : 48.0 KHz\nCompression mode : Lossy\nStream size : 15.9 MiB (9%)\nLanguage : English\nEncoded date : UTC 2015-06-04 04:35:08\nTagged date : UTC 2015-06-04 04:35:08\n\nText\nID : 3\nFormat : Timed Text\nCodec ID : tx3g\nDuration : 20mn 30s\nBit rate mode : Variable\nBit rate : 146 bps\nStream size : 21.9 KiB (0%)\nLanguage : English\nEncoded date : UTC 2015-06-04 04:35:08\nTagged date : UTC 2015-06-04 04:35:08","torrent":{"xt":"urn:btih:fb49e4380d1ad389b73e21f74c328e422e1af43e","amp;dn":"Instant+Mom+S02E16+Ghost+Busted+hdtv+x264-w4f+mp4","amp;tr":["udp%3A%2F%2Ftracker.openbittorrent.com%3A80","udp%3A%2F%2Fopen.demonii.com%3A1337","udp%3A%2F%2Ftracker.coppersurfer.tk%3A6969","udp%3A%2F%2Fexodus.desync.com%3A6969"],"infoHash":"fb49e4380d1ad389b73e21f74c328e422e1af43e","infoHashBuffer":{"type":"Buffer","data":[251,73,228,56,13,26,211,137,183,62,33,247,76,50,142,66,46,26,244,62]},"announce":[],"urlList":[]}}